<svg width="214" height="73" viewBox="0 0 214 73" fill="none" xmlns="http://www.w3.org/2000/svg">
<g clip-path="url(#clip0_503_589)">
<path d="M41.3653 46.0879H0.0840454V72.4156H41.3653V46.0879Z" fill="white"/>
<path d="M41.2813 46.1726V72.332H0.168282V46.1726H41.2813ZM41.4495 46.0043H0V72.5003H41.4495V46.0043Z" fill="black"/>
<path d="M16.5756 54.9368L12.9475 63.5916H10.5797L8.79595 56.6836C8.68657 56.2578 8.59233 56.103 8.2625 55.9229C7.56103 55.5873 6.8205 55.3403 6.05801 55.1876L6.11186 54.9368H9.91671C10.1659 54.9362 10.407 55.0248 10.5965 55.1865C10.786 55.3483 10.9114 55.5725 10.95 55.8186L11.8923 60.8267L14.223 54.9368H16.5756ZM25.8497 60.7661C25.8497 58.4808 22.6893 58.3546 22.7112 57.3348C22.7112 57.0235 23.0141 56.6937 23.662 56.6095C24.4194 56.5377 25.1821 56.6714 25.8698 56.9966L26.2619 55.1623C25.5921 54.9102 24.8825 54.7802 24.1668 54.7786C21.9539 54.7786 20.3973 55.9566 20.3839 57.6394C20.3704 58.8847 21.4962 59.5797 22.3443 59.9954C23.1925 60.411 23.5088 60.6904 23.5055 61.0707C23.5055 61.6513 22.8105 61.9121 22.1592 61.9121C21.3583 61.9296 20.5662 61.7413 19.8588 61.3652L19.4533 63.2617C19.9766 63.5024 20.9425 63.711 21.9438 63.7211C24.2998 63.7211 25.8345 62.56 25.8429 60.7611L25.8497 60.7661ZM31.6857 63.5865H33.7572L31.9566 54.9368H30.0449C29.8406 54.9348 29.6404 54.9942 29.4703 55.1073C29.3002 55.2205 29.168 55.3821 29.0908 55.5712L25.7251 63.5916H28.0811L28.5489 62.2991H31.4215L31.6857 63.5865ZM29.1934 60.5255L30.3714 57.2742L31.0445 60.5255H29.1934ZM19.7696 54.9368L17.9185 63.5916H15.6837L17.5348 54.9368H19.7696Z" fill="#1A1F71"/>
</g>
<g clip-path="url(#clip1_503_589)">
<path d="M213.589 46.0884H172.308V72.4162H213.589V46.0884Z" fill="white"/>
<path d="M213.505 46.1723V72.3317H172.392V46.1723H213.505ZM213.674 46.004H172.224V72.5H213.674V46.004Z" fill="black"/>
<path d="M208.931 66.594C208.931 67.9126 208.407 69.1771 207.475 70.1097C206.543 71.0422 205.279 71.5663 203.96 71.5667H176.964V51.9114C176.964 50.5925 177.488 49.3277 178.421 48.3951C179.353 47.4626 180.618 46.9387 181.937 46.9387H208.931V66.594Z" fill="white"/>
<path d="M198.395 69.9009H203.604C204.546 69.9009 205.449 69.5268 206.115 68.861C206.781 68.1951 207.156 67.292 207.156 66.3501V48.5964H201.939C200.998 48.5968 200.094 48.9713 199.429 49.6375C198.763 50.3036 198.389 51.2069 198.389 52.1488L198.395 69.9009Z" fill="url(#paint0_linear_503_589)"/>
<path d="M204.127 59.1776V59.1305C205.17 58.9774 205.744 58.2891 205.744 57.4999C205.744 56.4902 204.903 55.9012 203.768 55.844C203.679 55.844 203.536 55.8305 203.42 55.8305H198.393V62.6644H203.903C205.194 62.6644 206.163 61.9694 206.163 60.8874C206.163 59.8912 205.28 59.2567 204.127 59.1776ZM200.13 56.8974H201.993C202.061 56.8983 202.129 56.9039 202.197 56.9142C202.397 56.9489 202.578 57.053 202.709 57.2084C202.84 57.3637 202.911 57.5602 202.911 57.7632C202.911 57.9663 202.84 58.1628 202.709 58.3181C202.578 58.4734 202.397 58.5776 202.197 58.6122C202.129 58.621 202.061 58.6261 201.993 58.6274H200.13V56.8974ZM202.43 61.5353C202.35 61.5501 202.268 61.558 202.186 61.5588H200.13V59.6842H202.186C202.268 59.6858 202.35 59.6937 202.43 59.7077C202.636 59.7564 202.82 59.8731 202.951 60.039C203.082 60.2048 203.153 60.4101 203.153 60.6215C203.153 60.8329 203.082 61.0382 202.951 61.204C202.82 61.3699 202.636 61.4866 202.43 61.5353Z" fill="white"/>
<path d="M178.741 69.9009H183.958C184.9 69.9009 185.803 69.5268 186.469 68.861C187.136 68.1951 187.51 67.292 187.51 66.3501V48.5964H182.294C181.352 48.5968 180.449 48.9713 179.783 49.6375C179.117 50.3036 178.743 51.2069 178.743 52.1488L178.741 69.9009Z" fill="url(#paint1_linear_503_589)"/>
<path d="M178.741 60.9196C179.738 61.4026 180.761 61.7173 181.814 61.7173C183.043 61.7173 183.716 60.9684 183.716 59.9588V55.8375H186.772V59.9588C186.772 61.5709 185.782 62.8633 182.386 62.8633C181.158 62.8638 179.934 62.7157 178.741 62.4224V60.9196Z" fill="white"/>
<path d="M188.567 69.9009H193.784C194.726 69.9009 195.629 69.5268 196.295 68.861C196.961 68.1951 197.336 67.292 197.336 66.3501V48.5964H192.119C191.177 48.5964 190.274 48.9706 189.608 49.6369C188.941 50.3031 188.567 51.2066 188.567 52.1488V69.9009Z" fill="url(#paint2_linear_503_589)"/>
<path d="M188.567 56.7981C189.467 56.0273 191.024 55.5444 193.552 55.6588C194.492 55.7174 195.426 55.8587 196.342 56.0812V57.5856C195.507 57.1428 194.591 56.8754 193.649 56.7998C191.731 56.655 190.576 57.5924 190.576 59.2533C190.576 60.9143 191.731 61.8499 193.649 61.7035C194.59 61.6259 195.506 61.3592 196.342 60.9193V62.4237C195.426 62.6454 194.492 62.7873 193.552 62.8478C191.027 62.9606 189.467 62.4793 188.567 61.7069V56.7981Z" fill="white"/>
</g>
<g clip-path="url(#clip2_503_589)">
<path d="M170.389 46.0884H129.108V72.4162H170.389V46.0884Z" fill="white"/>
<path d="M170.305 46.1723V72.3317H129.192V46.1723H170.305ZM170.474 46.004H129.024V72.5H170.474V46.004Z" fill="black"/>
<path d="M161.511 71.0099H137.986V47.4858H161.511V71.0099Z" fill="white"/>
<path d="M161.511 60.2279V47.4957H137.986V71.0199H161.511V64.1573C161.458 64.1573 161.511 60.2279 161.511 60.2279Z" fill="#006FCF"/>
<path d="M158.63 58.9171H160.41V54.7791H158.473V55.3546L158.106 54.7791H156.423V55.5128L156.117 54.7791H153.022C152.918 54.7791 152.814 54.8312 152.708 54.8312C152.602 54.8312 152.551 54.8834 152.447 54.9356C152.342 54.9877 152.289 54.9877 152.184 55.0399V54.7791H143.328L143.067 55.4522L142.804 54.7791H140.711V55.5128L140.396 54.7791H138.713L137.986 56.5595V58.9154H139.191L139.4 58.3399H139.819L140.029 58.9154H149.251V58.3938L149.618 58.9171H152.184V58.6024C152.236 58.6563 152.342 58.6563 152.395 58.7084C152.447 58.7606 152.551 58.7606 152.603 58.8128C152.703 58.8551 152.81 58.873 152.918 58.8649H154.804L155.013 58.2894H155.432L155.643 58.8649H158.21V58.3416L158.63 58.9171ZM161.511 64.1574V60.2869H147.102L146.735 60.8103L146.368 60.2869H142.178V64.425H146.368L146.735 63.9016L147.102 64.425H149.722V63.5348H149.618C149.939 63.5425 150.259 63.4894 150.56 63.3783V64.4771H152.447V63.9538L152.814 64.4771H160.62C160.927 64.4023 161.226 64.2952 161.511 64.1574Z" fill="white"/>
<path d="M160.62 63.1695H159.205V63.7467H160.568C161.144 63.7467 161.511 63.3798 161.511 62.8548C161.511 62.3298 161.196 62.0689 160.669 62.0689H160.04C159.974 62.0636 159.913 62.0338 159.868 61.9853C159.823 61.9368 159.798 61.8732 159.798 61.8072C159.798 61.7413 159.823 61.6777 159.868 61.6292C159.913 61.5807 159.974 61.5508 160.04 61.5456H161.245L161.507 60.9684H160.092C159.516 60.9684 159.15 61.3352 159.15 61.8098C159.15 62.3331 159.464 62.5956 159.991 62.5956H160.62C160.655 62.5934 160.69 62.5987 160.723 62.611C160.755 62.6233 160.785 62.6424 160.81 62.6671C160.834 62.6918 160.853 62.7214 160.866 62.7541C160.878 62.7868 160.883 62.8217 160.881 62.8565C160.935 63.0567 160.829 63.1695 160.62 63.1695ZM158.052 63.1695H156.639V63.7467H158C158.577 63.7467 158.943 63.3798 158.943 62.8548C158.943 62.3298 158.63 62.0689 158.101 62.0689H157.473C157.437 62.0718 157.401 62.0672 157.367 62.0554C157.332 62.0435 157.301 62.0247 157.274 62.0002C157.248 61.9756 157.226 61.9457 157.212 61.9125C157.197 61.8793 157.19 61.8435 157.19 61.8072C157.19 61.771 157.197 61.7352 157.212 61.702C157.226 61.6688 157.248 61.6389 157.274 61.6143C157.301 61.5898 157.332 61.571 157.367 61.5591C157.401 61.5473 157.437 61.5427 157.473 61.5456H158.678L158.939 60.9684H157.526C156.948 60.9684 156.582 61.3352 156.582 61.8098C156.582 62.3331 156.896 62.5956 157.423 62.5956H158.051C158.086 62.5935 158.12 62.5987 158.153 62.611C158.186 62.6233 158.216 62.6424 158.241 62.6671C158.265 62.6917 158.285 62.7213 158.297 62.754C158.31 62.7866 158.315 62.8216 158.313 62.8565C158.325 62.8951 158.327 62.9361 158.319 62.9757C158.311 63.0152 158.293 63.0522 158.267 63.0832C158.241 63.1142 158.208 63.1384 158.171 63.1534C158.133 63.1685 158.092 63.174 158.052 63.1695ZM156.218 61.4867V60.9078H154.019V63.6844H156.218V63.1089H154.646V62.5334H156.161V61.9562H154.646V61.4328H156.218V61.4867ZM152.656 61.4867C152.918 61.4867 153.022 61.6432 153.022 61.8014C153.022 61.9595 152.918 62.1144 152.656 62.1144H151.87V61.4412L152.656 61.4867ZM151.87 62.6916H152.184L153.026 63.6861H153.812L152.869 62.6394C153.34 62.5351 153.603 62.2204 153.603 61.798C153.603 61.273 153.236 60.9061 152.659 60.9061H151.193V63.6828H151.821L151.87 62.6916ZM150.187 61.8502C150.191 61.8995 150.185 61.9493 150.168 61.9959C150.152 62.0425 150.125 62.0849 150.09 62.1199C150.055 62.155 150.012 62.1819 149.966 62.1986C149.919 62.2154 149.869 62.2217 149.82 62.217H148.979V61.4867H149.764C149.817 61.4787 149.871 61.4822 149.922 61.4969C149.974 61.5115 150.021 61.537 150.062 61.5716C150.103 61.6062 150.136 61.6491 150.158 61.6975C150.181 61.7458 150.193 61.7984 150.194 61.8518L150.187 61.8502ZM148.353 60.9061V63.6828H148.982V62.7404H149.823C150.401 62.7404 150.82 62.3735 150.82 61.798C150.825 61.6727 150.804 61.5477 150.758 61.4309C150.712 61.3141 150.643 61.208 150.554 61.1194C150.465 61.0307 150.359 60.9613 150.243 60.9157C150.126 60.87 150.001 60.849 149.875 60.8539L148.353 60.9061ZM147.41 63.6828H148.208L147.107 62.2692L148.208 60.9061H147.417L146.744 61.798L146.071 60.9061H145.268L146.368 62.2692L145.268 63.6306H146.054L146.727 62.7404L147.41 63.6828ZM145.059 61.4867V60.9078H142.858V63.6844H145.059V63.1089H143.496V62.5334H145.01V61.9562H143.496V61.4328H145.068L145.059 61.4867ZM157.8 56.5594L158.899 58.2422H159.685V55.4588H159.057V57.2931L158.899 57.0306L157.904 55.4588H157.063V58.2371H157.69V56.3507L157.8 56.5594ZM155.075 56.5072L155.276 55.9334L155.486 56.5089L155.747 57.1383H154.804L155.075 56.5072ZM156.174 58.2371H156.856L155.651 55.4588H154.81L153.593 58.2371H154.274L154.535 57.6599H155.898L156.174 58.2371ZM153.241 58.2371L153.504 57.6599H153.345C152.874 57.6599 152.612 57.3453 152.612 56.8741V56.8219C152.612 56.3507 152.874 56.036 153.345 56.036H154.027V55.4588H153.293C152.452 55.4588 151.984 56.036 151.984 56.8219V56.8741C151.976 57.7121 152.447 58.2371 153.233 58.2371H153.241ZM150.885 58.2371H151.513V55.5127H150.885V58.2371ZM149.522 56.036C149.785 56.036 149.889 56.1925 149.889 56.3507C149.889 56.5089 149.785 56.6637 149.522 56.6637H148.736V55.9906L149.522 56.036ZM148.736 57.2409H149.049L149.891 58.2371H150.677L149.722 57.1887C150.194 57.0844 150.456 56.7697 150.456 56.3473C150.456 55.8223 150.089 55.4554 149.512 55.4554H148.04V58.2371H148.667L148.736 57.2409ZM147.583 56.036V55.4588H145.374V58.2371H147.573V57.6599H146.002V57.0844H147.516V56.5072H146.002V55.9838H147.573L147.583 56.036ZM142.806 58.2371H143.383L144.169 55.9838V58.2371H144.797V55.4588H143.75L143.121 57.3453L142.486 55.4588H141.445V58.2371H142.072V55.9838L142.806 58.2371ZM139.4 56.5072L139.61 55.9334L139.819 56.5089L140.081 57.1383H139.139L139.4 56.5072ZM140.5 58.2371H141.174L139.977 55.4588H139.191L137.986 58.2371H138.668L138.929 57.6599H140.299L140.5 58.2371Z" fill="#006FCF"/>
</g>
<g clip-path="url(#clip3_503_589)">
<path d="M84.5654 46.0884H43.2842V72.4162H84.5654V46.0884Z" fill="white"/>
<path d="M84.4813 46.1723V72.3317H43.3683V46.1723H84.4813ZM84.6495 46.004H43.2V72.5H84.6495V46.004Z" fill="black"/>
<path d="M55.8551 69.0108V67.7032C55.8627 67.6014 55.8501 67.4991 55.8181 67.4022C55.786 67.3053 55.7352 67.2157 55.6684 67.1384C55.6017 67.0612 55.5203 66.9979 55.4291 66.9522C55.3378 66.9064 55.2384 66.8792 55.1366 66.8719C55.1035 66.8702 55.0704 66.8702 55.0373 66.8719C54.8933 66.8623 54.7493 66.8916 54.6205 66.9567C54.4917 67.0218 54.3828 67.1204 54.3053 67.2421C54.2344 67.1243 54.133 67.0277 54.0119 66.9626C53.8908 66.8975 53.7544 66.8661 53.617 66.8719C53.4974 66.8653 53.3781 66.8903 53.2712 66.9444C53.1643 66.9984 53.0734 67.0796 53.0078 67.1799V66.9241H52.5535V69.0057H53.0112V67.8648C52.9939 67.7367 53.0282 67.607 53.1064 67.5042C53.1847 67.4014 53.3005 67.3337 53.4285 67.3162C53.4593 67.3128 53.4903 67.3128 53.5211 67.3162C53.8223 67.3162 53.9738 67.5114 53.9738 67.8648V69.0226H54.4315V67.8648C54.4148 67.736 54.4499 67.6059 54.5291 67.503C54.6083 67.4002 54.7251 67.333 54.8539 67.3162C54.8829 67.3128 54.9123 67.3128 54.9414 67.3162C55.251 67.3162 55.3991 67.5114 55.3991 67.8648V69.0226L55.8551 69.0108ZM62.6218 66.9291H61.8796V66.2964H61.4219V66.9291H61.0079V67.3431H61.4303V68.3006C61.4303 68.7836 61.6171 69.0714 62.1539 69.0714C62.3546 69.0704 62.5508 69.012 62.7194 68.9031L62.5898 68.516C62.4676 68.5882 62.3294 68.6287 62.1876 68.6338C61.9705 68.6338 61.8881 68.4942 61.8881 68.2855V67.3431H62.6285L62.6218 66.9291ZM66.4922 66.877C66.3818 66.8734 66.2725 66.8998 66.1758 66.9534C66.0792 67.0071 65.999 67.0859 65.9436 67.1816V66.9291H65.4943V69.0108H65.9487V67.8429C65.9487 67.5063 66.0968 67.3078 66.3829 67.3078C66.4802 67.3065 66.5768 67.3242 66.6673 67.3599L66.8053 66.9241C66.7021 66.8872 66.5934 66.8684 66.4838 66.8686L66.4922 66.877ZM60.6512 67.0941C60.3969 66.9436 60.1051 66.8684 59.8098 66.877C59.283 66.877 58.9398 67.1294 58.9398 67.5501C58.9398 67.8867 59.1922 68.0987 59.6583 68.1643L59.8754 68.1946C60.1245 68.2283 60.2423 68.2939 60.2423 68.4117C60.2423 68.58 60.074 68.6641 59.7677 68.6641C59.5187 68.6721 59.2744 68.5956 59.0744 68.447L58.8506 68.7937C59.1123 68.9744 59.4245 69.0675 59.7425 69.0596C60.3449 69.0596 60.6933 68.7769 60.6933 68.3865C60.6933 67.996 60.419 67.8294 59.9646 67.7638L59.7475 67.7335C59.5523 67.7066 59.3941 67.6679 59.3941 67.5282C59.3941 67.3885 59.5422 67.2842 59.7913 67.2842C60.0207 67.2876 60.2455 67.3496 60.4442 67.4643L60.6512 67.0941ZM72.7843 66.877C72.6739 66.8734 72.5645 66.8998 72.4679 66.9534C72.3713 67.0071 72.2911 67.0859 72.2357 67.1816V66.9291H71.7864V69.0108H72.2391V67.8429C72.2391 67.5063 72.3872 67.3078 72.6749 67.3078C72.7717 67.3063 72.8678 67.3241 72.9576 67.3599L73.0973 66.9241C72.9942 66.8872 72.8854 66.8684 72.7759 66.8686L72.7843 66.877ZM66.9483 67.9658C66.9429 68.1036 66.9647 68.2411 67.0126 68.3705C67.0604 68.4999 67.1334 68.6186 67.2272 68.7197C67.321 68.8209 67.4338 68.9025 67.5592 68.96C67.6846 69.0174 67.8201 69.0496 67.958 69.0545H68.0573C68.3292 69.0676 68.5962 68.9788 68.8061 68.8055L68.5874 68.4403C68.4312 68.5598 68.2405 68.6254 68.0438 68.6271C67.8834 68.6042 67.7365 68.5243 67.6303 68.4018C67.5241 68.2794 67.4656 68.1228 67.4656 67.9607C67.4656 67.7986 67.5241 67.642 67.6303 67.5196C67.7365 67.3972 67.8834 67.3172 68.0438 67.2943C68.2403 67.2968 68.4308 67.3623 68.5874 67.4811L68.8061 67.1159C68.5964 66.9423 68.3291 66.854 68.0573 66.8686C67.9194 66.8606 67.7813 66.8799 67.6508 66.9253C67.5204 66.9707 67.4001 67.0414 67.297 67.1333C67.1939 67.2251 67.1098 67.3364 67.0497 67.4608C66.9896 67.5852 66.9546 67.7202 66.9466 67.8581C66.9449 67.8911 66.9449 67.9243 66.9466 67.9573L66.9483 67.9658ZM71.1907 67.9658V66.9291H70.7363V67.1816C70.6596 67.0825 70.5603 67.0032 70.4467 66.9502C70.3332 66.8972 70.2086 66.8721 70.0834 66.877C69.7946 66.877 69.5177 66.9917 69.3135 67.1959C69.1093 67.4001 68.9946 67.677 68.9946 67.9658C68.9946 68.2545 69.1093 68.5315 69.3135 68.7356C69.5177 68.9398 69.7946 69.0545 70.0834 69.0545C70.2085 69.059 70.333 69.0337 70.4465 68.9807C70.56 68.9278 70.6593 68.8487 70.7363 68.7499V69.0024H71.1907V67.9658ZM69.5079 67.9658C69.5142 67.8033 69.5841 67.6498 69.7024 67.5383C69.8207 67.4268 69.978 67.3661 70.1405 67.3693C70.3031 67.3725 70.4579 67.4393 70.5717 67.5554C70.6855 67.6715 70.7493 67.8276 70.7493 67.9902C70.7493 68.1527 70.6855 68.3088 70.5717 68.4249C70.4579 68.541 70.3031 68.6078 70.1405 68.611C69.978 68.6142 69.8207 68.5535 69.7024 68.442C69.5841 68.3305 69.5142 68.177 69.5079 68.0146C69.5036 67.9985 69.5003 67.9822 69.4978 67.9658H69.5079ZM64.032 66.8719C63.7419 66.8766 63.4655 66.9963 63.2637 67.2048C63.0619 67.4132 62.9511 67.6933 62.9558 67.9834C62.9605 68.2735 63.0802 68.5499 63.2887 68.7517C63.4971 68.9535 63.7772 69.0643 64.0673 69.0596C64.3801 69.0748 64.6874 68.9741 64.9306 68.7769L64.7135 68.4403C64.5415 68.5785 64.3283 68.6555 64.1077 68.6591C63.9587 68.672 63.8106 68.6265 63.6944 68.5324C63.5783 68.4382 63.5032 68.3026 63.485 68.1542H65.0316V67.9859C65.0316 67.333 64.626 66.8972 64.0421 66.8972L64.032 66.8719ZM64.032 67.2758C64.1686 67.2735 64.3006 67.3253 64.3992 67.4198C64.4978 67.5144 64.5552 67.6441 64.5587 67.7806H63.4699C63.4777 67.6411 63.5399 67.5101 63.643 67.4158C63.7462 67.3214 63.8822 67.2712 64.0219 67.2758H64.032ZM75.3792 67.9641V66.0928H74.9451V67.1816C74.8679 67.0826 74.7682 67.0034 74.6544 66.9504C74.5406 66.8974 74.4159 66.8723 74.2904 66.877C74.0017 66.877 73.7247 66.9917 73.5205 67.1959C73.3164 67.4001 73.2017 67.677 73.2017 67.9658C73.2017 68.2545 73.3164 68.5315 73.5205 68.7356C73.7247 68.9398 74.0017 69.0545 74.2904 69.0545C74.4158 69.0588 74.5404 69.0335 74.6542 68.9805C74.7679 68.9276 74.8676 68.8486 74.9451 68.7499V69.0024H75.3792V67.9641ZM76.1348 68.7028C76.1635 68.7028 76.192 68.7079 76.2189 68.718C76.2436 68.7287 76.2664 68.7435 76.2863 68.7617C76.3051 68.7808 76.3205 68.803 76.3317 68.8274C76.3435 68.8538 76.3496 68.8825 76.3496 68.9115C76.3496 68.9405 76.3435 68.9692 76.3317 68.9956C76.3092 69.0446 76.2688 69.0831 76.2189 69.1033C76.1925 69.1152 76.1638 69.1215 76.1348 69.1218C76.0937 69.1211 76.0537 69.1089 76.0192 69.0866C75.9847 69.0643 75.9571 69.0328 75.9396 68.9956C75.9278 68.9692 75.9217 68.9405 75.9217 68.9115C75.9217 68.8825 75.9278 68.8538 75.9396 68.8274C75.9508 68.803 75.9662 68.7808 75.985 68.7617C76.0046 68.7431 76.0274 68.7283 76.0523 68.718C76.0806 68.7063 76.111 68.7011 76.1415 68.7028H76.1348ZM76.1348 69.0714C76.1568 69.0711 76.1785 69.0665 76.1988 69.0579C76.2176 69.0493 76.2347 69.0373 76.2492 69.0226C76.2749 68.9922 76.2889 68.9538 76.2889 68.914C76.2889 68.8743 76.2749 68.8358 76.2492 68.8055C76.2347 68.7907 76.2176 68.7787 76.1988 68.7701C76.1789 68.7613 76.1574 68.7567 76.1356 68.7567C76.1139 68.7567 76.0924 68.7613 76.0725 68.7701C76.0444 68.7822 76.0204 68.8023 76.0035 68.8278C75.9866 68.8534 75.9776 68.8834 75.9776 68.914C75.9776 68.9447 75.9866 68.9746 76.0035 69.0002C76.0204 69.0258 76.0444 69.0458 76.0725 69.0579C76.0943 69.0672 76.1178 69.0718 76.1415 69.0714H76.1348ZM76.1483 68.8122C76.1687 68.8109 76.189 68.8169 76.2055 68.829C76.2119 68.8346 76.217 68.8416 76.2202 68.8495C76.2234 68.8574 76.2247 68.866 76.224 68.8745C76.2249 68.8819 76.2239 68.8895 76.2213 68.8965C76.2187 68.9035 76.2144 68.9098 76.2088 68.9149C76.1962 68.926 76.1802 68.9325 76.1634 68.9334L76.2274 69.0057H76.1836L76.1247 68.9334H76.1045V69.0057H76.0641V68.8139L76.1483 68.8122ZM76.1011 68.8492V68.9014H76.1836C76.1852 68.8983 76.1861 68.8948 76.1861 68.8913C76.1861 68.8878 76.1852 68.8843 76.1836 68.8812C76.1852 68.8784 76.1861 68.8752 76.1861 68.872C76.1861 68.8687 76.1852 68.8655 76.1836 68.8627C76.175 68.8593 76.1653 68.8593 76.1567 68.8627L76.1011 68.8492ZM73.7048 67.9641C73.7114 67.8017 73.7814 67.6484 73.8998 67.537C74.0181 67.4257 74.1754 67.3652 74.3379 67.3685C74.5004 67.3718 74.6551 67.4386 74.7688 67.5547C74.8825 67.6708 74.9462 67.8268 74.9462 67.9893C74.9462 68.1518 74.8825 68.3078 74.7688 68.4239C74.6551 68.54 74.5004 68.6068 74.3379 68.6101C74.1754 68.6134 74.0181 68.5529 73.8998 68.4416C73.7814 68.3302 73.7114 68.1769 73.7048 68.0146C73.7031 68.0028 73.7048 67.9859 73.7048 67.9691V67.9641ZM58.4097 67.9641V66.9241H57.957V67.1765C57.8801 67.0776 57.7808 66.9983 57.6673 66.9454C57.5538 66.8924 57.4292 66.8672 57.3041 66.8719C57.0153 66.8719 56.7384 66.9866 56.5342 67.1908C56.33 67.395 56.2153 67.6719 56.2153 67.9607C56.2153 68.2495 56.33 68.5264 56.5342 68.7306C56.7384 68.9348 57.0153 69.0495 57.3041 69.0495C57.4292 69.0538 57.5536 69.0284 57.667 68.9755C57.7805 68.9225 57.8799 68.8435 57.957 68.7449V68.9973H58.4097V67.9641ZM56.7268 67.9641C56.7339 67.8148 56.799 67.6742 56.9083 67.5724C57.0176 67.4705 57.1625 67.4155 57.3118 67.419C57.4612 67.4225 57.6033 67.4843 57.7077 67.5912C57.8121 67.6981 57.8705 67.8416 57.8705 67.991C57.8705 68.1404 57.8121 68.2839 57.7077 68.3908C57.6033 68.4977 57.4612 68.5595 57.3118 68.563C57.1625 68.5665 57.0176 68.5115 56.9083 68.4096C56.799 68.3077 56.7339 68.1672 56.7268 68.0179C56.7268 68.0011 56.7268 67.9826 56.7268 67.9641Z" fill="#231F20"/>
<path d="M60.9308 57.2286C60.9291 56.041 61.1978 54.8687 61.7165 53.8004C62.2352 52.7321 62.9903 51.7959 63.9246 51.0628C62.7679 50.1537 61.3789 49.5884 59.9162 49.4314C58.4535 49.2745 56.9761 49.5322 55.653 50.1752C54.3298 50.8181 53.2143 51.8204 52.4338 53.0674C51.6533 54.3144 51.2394 55.7558 51.2394 57.2269C51.2394 58.698 51.6533 60.1394 52.4338 61.3864C53.2143 62.6334 54.3298 63.6357 55.653 64.2787C56.9761 64.9216 58.4535 65.1794 59.9162 65.0224C61.3789 64.8655 62.7679 64.3002 63.9246 63.3911C62.9909 62.6581 62.2362 61.7225 61.7176 60.6548C61.1989 59.5872 60.9299 58.4156 60.9308 57.2286Z" fill="#EB001B"/>
<path d="M76.6108 57.229C76.61 58.7 76.1956 60.1411 75.4148 61.3877C74.634 62.6344 73.5183 63.6363 72.1952 64.279C70.872 64.9217 69.3948 65.1793 67.9322 65.0223C66.4696 64.8654 65.0807 64.3003 63.924 63.3915C64.8574 62.6578 65.612 61.7218 66.1309 60.654C66.6498 59.5862 66.9194 58.4145 66.9194 57.2273C66.9194 56.0401 66.6498 54.8684 66.1309 53.8006C65.612 52.7328 64.8574 51.7968 63.924 51.0631C65.0807 50.1543 66.4696 49.5892 67.9322 49.4323C69.3948 49.2753 70.872 49.5329 72.1952 50.1756C73.5183 50.8183 74.634 51.8202 75.4148 53.0669C76.1956 54.3135 76.61 55.7546 76.6108 57.2256V57.229Z" fill="#F79E1B"/>
<path d="M75.8601 62.086V61.8319H75.9627V61.7797H75.7035V61.8319H75.8146V62.086H75.8601ZM76.3649 62.086V61.7797H76.2875L76.1949 61.9985L76.1041 61.7797H76.0351V62.086H76.0906V61.8571L76.1764 62.054H76.2353L76.3195 61.8571V62.0877L76.3649 62.086Z" fill="#F79E1B"/>
<path d="M63.9258 63.3917C62.9924 62.6581 62.2378 61.722 61.7189 60.6542C61.2 59.5864 60.9304 58.4147 60.9304 57.2275C60.9304 56.0403 61.2 54.8686 61.7189 53.8008C62.2378 52.733 62.9924 51.797 63.9258 51.0634C64.8578 51.7979 65.6111 52.7343 66.129 53.8019C66.6469 54.8696 66.916 56.0409 66.916 57.2275C66.916 58.4142 66.6469 59.5854 66.129 60.6531C65.6111 61.7208 64.8578 62.6571 63.9258 63.3917Z" fill="#FF5F00"/>
</g>
<g clip-path="url(#clip4_503_589)">
<path d="M127.213 46.0884H86.4831V72.4162H127.213V46.0884Z" fill="white"/>
<path d="M127.13 46.1723V72.3317H86.566V46.1723H127.13ZM127.296 46.004H86.4V72.5H127.296V46.004Z" fill="black"/>
<path d="M92.6262 59.238C92.6279 59.5047 92.5754 59.7689 92.472 60.0141C92.3685 60.2593 92.2165 60.4803 92.0252 60.6634C91.6815 60.9764 91.2382 61.1127 90.5309 61.1127H90.242V57.3735H90.5358C91.2382 57.3735 91.6649 57.5014 92.0302 57.8312C92.2212 58.0106 92.3733 58.2283 92.4768 58.4705C92.5802 58.7127 92.6328 58.9741 92.6312 59.238H92.6262ZM93.7519 59.238C93.7519 57.5687 92.5233 56.4075 90.7633 56.4075H89.1544V62.0618H90.745C91.5902 62.0618 92.1995 61.8582 92.7375 61.4089C93.0522 61.1439 93.3059 60.8122 93.4806 60.4371C93.6553 60.0621 93.7468 59.6528 93.7486 59.238" fill="#231F20"/>
<path d="M95.3381 56.4145H94.2505V62.0704H95.3381V56.4145Z" fill="#231F20"/>
<path d="M97.6802 62.207C96.85 62.207 96.249 61.8704 95.7475 61.13L96.4499 60.4434C96.5547 60.6719 96.7227 60.8647 96.9333 60.9985C97.144 61.1323 97.3884 61.2013 97.637 61.1973C97.7448 61.2044 97.8529 61.1892 97.9546 61.1525C98.0564 61.1158 98.1497 61.0584 98.2288 60.9839C98.3079 60.9094 98.3712 60.8193 98.4147 60.7191C98.4583 60.6189 98.4812 60.5108 98.4821 60.4013C98.4826 60.2827 98.4521 60.1661 98.3938 60.0633C98.3355 59.9604 98.2514 59.875 98.1501 59.8157C97.9092 59.685 97.6569 59.5774 97.3963 59.4943C96.3835 59.1207 96.0298 58.7219 96.0298 57.9411C96.0298 57.0172 96.7819 56.3222 97.7698 56.3222C98.3741 56.3165 98.9591 56.5377 99.4119 56.9432L98.8424 57.6987C98.5585 57.3756 98.2895 57.2393 97.9641 57.2393C97.4959 57.2393 97.1522 57.5103 97.1522 57.867C97.1522 58.1733 97.3448 58.3332 97.9973 58.5789C99.2359 59.0383 99.6029 59.4438 99.6029 60.3424C99.6029 61.4363 98.8092 62.1935 97.6802 62.1935" fill="#231F20"/>
<path d="M102.892 62.1984C102.506 62.2058 102.122 62.1348 101.764 61.9895C101.405 61.8442 101.079 61.6276 100.805 61.3525C100.53 61.0774 100.313 60.7493 100.165 60.3876C100.018 60.026 99.9436 59.638 99.9466 59.2467C99.9485 58.8544 100.027 58.4663 100.178 58.1048C100.328 57.7434 100.548 57.4157 100.824 57.1407C101.1 56.8657 101.427 56.6488 101.786 56.5025C102.146 56.3562 102.53 56.2834 102.917 56.2883C103.385 56.2875 103.845 56.4068 104.255 56.635V57.9341C103.804 57.4831 103.41 57.2963 102.892 57.2963C101.871 57.2963 101.066 58.1546 101.066 59.2383C101.066 60.3843 101.844 61.1887 102.94 61.1887C103.438 61.1887 103.818 61.0103 104.253 60.5711V61.8669C103.832 62.0871 103.365 62.2025 102.89 62.2034" fill="#231F20"/>
<path d="M113.349 62.0822H112.763L110.395 56.4145H111.584L113.073 60.2143L114.579 56.4145H115.758L113.349 62.0822Z" fill="#231F20"/>
<path d="M116.268 62.0705V56.4163H119.354V57.3738H117.355V58.6292H119.279V59.5867H117.355V61.113H119.354V62.0705H116.268Z" fill="#231F20"/>
<path d="M122.408 58.1444C122.408 58.7132 122.041 59.0178 121.347 59.0178H121.028V57.3064H121.36C122.038 57.3064 122.404 57.5941 122.404 58.1478L122.408 58.1444ZM124.012 62.0738L122.263 59.6893C123.084 59.521 123.535 58.9505 123.535 58.0855C123.535 57.0254 122.815 56.4145 121.561 56.4145H119.939V62.0704H121.026V59.8037H121.169L122.675 62.0755L124.012 62.0738Z" fill="#231F20"/>
<path d="M124.455 56.8705C124.453 56.939 124.431 57.0054 124.392 57.0612C124.353 57.1171 124.298 57.1599 124.235 57.1843C124.172 57.2086 124.103 57.2135 124.037 57.1981C123.971 57.1828 123.911 57.148 123.864 57.0981C123.818 57.0483 123.787 56.9856 123.776 56.918C123.765 56.8504 123.773 56.7809 123.801 56.7184C123.829 56.6558 123.874 56.603 123.931 56.5666C123.989 56.5302 124.055 56.5118 124.123 56.5137C124.213 56.5172 124.299 56.5566 124.361 56.6233C124.423 56.69 124.457 56.7788 124.455 56.8705ZM124.541 56.8705C124.541 56.7849 124.516 56.7013 124.469 56.6303C124.421 56.5594 124.354 56.5042 124.276 56.4718C124.198 56.4394 124.112 56.4313 124.029 56.4485C123.947 56.4656 123.871 56.5073 123.811 56.5682C123.752 56.629 123.712 56.7064 123.696 56.7905C123.68 56.8746 123.689 56.9615 123.722 57.0404C123.755 57.1193 123.81 57.1865 123.88 57.2335C123.951 57.2806 124.034 57.3053 124.118 57.3047C124.231 57.3038 124.339 57.2576 124.418 57.1762C124.498 57.0948 124.542 56.9849 124.541 56.8705ZM124.334 57.1212L124.168 56.9142C124.199 56.9078 124.228 56.8902 124.247 56.8646C124.267 56.839 124.277 56.8071 124.276 56.7746C124.276 56.677 124.209 56.6214 124.09 56.6214H123.934V57.1263H124.048V56.926L124.186 57.1195L124.334 57.1212ZM124.168 56.7847C124.168 56.8284 124.138 56.8503 124.08 56.8503H124.058V56.7207H124.082C124.14 56.7207 124.168 56.7426 124.168 56.7847Z" fill="#231F20"/>
<path d="M107.649 62.2172C109.254 62.2172 110.555 60.8987 110.555 59.2723C110.555 57.6458 109.254 56.3273 107.649 56.3273C106.044 56.3273 104.744 57.6458 104.744 59.2723C104.744 60.8987 106.044 62.2172 107.649 62.2172Z" fill="url(#paint3_linear_503_589)"/>
</g>
<g clip-path="url(#clip5_503_589)">
<path d="M47.687 19.508C48.9883 20.101 50.4114 20.3773 51.84 20.3144H52.2029C54.8813 20.3144 55.728 19.7384 55.728 17.7397V17.0428C55.728 15.4703 55.1866 14.9576 53.257 14.468L48.361 13.316C45.6826 12.5672 44.905 11.588 44.905 8.99028V8.69652C44.928 5.32116 46.7309 3.95604 51.1085 3.95604H51.7536C53.9012 3.95128 56.0314 4.34178 58.0378 5.10804V9.549H55.8259L55.4918 6.83604C54.3243 6.35442 53.0677 6.12666 51.8054 6.16788H51.1373C48.7642 6.14484 47.8368 6.78996 47.8368 8.56404V8.85204C47.8368 10.0616 48.2746 10.6549 49.5648 11.012L55.0829 12.2504C57.6288 12.8956 58.5389 13.9784 58.5389 16.5532V17.7052C58.5389 21.1324 56.8109 22.5205 52.3526 22.5205H51.5232C49.2819 22.5394 47.0645 22.0593 45.0317 21.1151V16.8642H47.3357L47.687 19.508Z" fill="#003E6F"/>
<path d="M84.5741 20.3663V22.244H79.9085V13.5407C79.9085 11.3 79.655 10.8335 78.0307 10.8335H77.7197C76.3027 10.8335 75.0643 11.5535 73.6013 12.6882V20.1762L75.5827 20.3547V22.2325H70.9171V13.5407C70.9171 11.3 70.6637 10.8335 69.0394 10.8335H68.7283C67.3632 10.8335 66.1536 11.5535 64.7366 12.6363V20.2107C65.3126 20.2395 65.8886 20.2856 66.5683 20.3663V22.244H60.2323V20.3663C60.9062 20.2856 61.4938 20.2395 62.064 20.2107V10.9947C61.488 10.9429 60.912 10.8623 60.336 10.8104V8.87507H64.7424V10.9371C66.384 9.62387 68.0371 8.56403 70.0416 8.56403H70.3526C72.2304 8.56403 73.152 9.18611 73.4458 11.1445C75.1738 9.77939 76.9018 8.56979 79.033 8.56979H79.344C81.5558 8.56979 82.5869 9.54899 82.5869 12.1467V20.2107L84.5741 20.3663Z" fill="#003E6F"/>
<path d="M97.92 20.1877C98.3578 20.1877 98.9222 20.2626 99.7459 20.3375V22.221H95.2301V20.3893C93.6288 21.6565 92.3501 22.4514 90.2304 22.4514H89.7638C87.2179 22.4514 86.1062 21.9387 86.1062 18.8456V18.3042C86.1062 15.3666 87.6787 14.9058 89.8963 14.6235C91.8547 14.3874 93.3523 14.2837 95.2301 14.0821V13.4082C95.2301 11.1042 94.4006 10.5282 92.4192 10.5282C91.3116 10.5223 90.2093 10.6795 89.1475 10.9947L88.992 12.596H86.976V9.31283C88.8156 8.8518 90.7016 8.6006 92.5978 8.56403H93.577C96.6182 8.56403 97.92 10.292 97.92 13.2584V20.1877ZM91.3478 20.493C92.7936 20.493 93.9744 19.7211 95.2416 18.6152V15.5221C94.2336 15.6258 92.2752 15.8331 91.0426 16.0117C89.4182 16.2191 88.8998 16.628 88.8998 18.0738V18.5634C88.8998 20.0322 89.3664 20.493 90.9389 20.493H91.3478Z" fill="#003E6F"/>
<path d="M105.598 11.3749C106.911 9.69875 108.046 8.74835 109.872 8.74835H111.024V11.2194C110.304 11.2482 109.636 11.2712 109.066 11.3231C108.393 11.3143 107.729 11.4666 107.128 11.7672C106.526 12.0679 106.006 12.5081 105.61 13.0511V20.2108C106.186 20.2396 106.762 20.2856 107.591 20.3663V22.244H101.088V20.3663C101.762 20.2856 102.349 20.2396 102.92 20.2108V10.9948C102.344 10.9429 101.768 10.8623 101.192 10.8104V8.87507H105.598V11.3749Z" fill="#003E6F"/>
<path d="M118.426 20.2625C119.324 20.2625 119.946 20.2625 120.874 20.1877V21.7313C119.688 22.2531 118.408 22.5257 117.112 22.532H116.83C114.82 22.532 113.864 21.4491 113.864 18.9493V10.868H112.136V8.87502H113.478C113.939 8.87502 114.054 8.7195 114.054 8.29902V5.19438C114.861 5.0392 115.68 4.95249 116.502 4.93518V8.87502H120.447V10.868H116.502V17.6878C116.502 19.7499 116.79 20.2625 118.155 20.2625H118.426Z" fill="#003E6F"/>
<path d="M131.754 4.21521C135.59 4.21521 137.393 5.94321 137.393 9.39921V10.868C137.393 14.1915 135.567 15.8389 131.754 15.8389H127.4V20.084C128.143 20.1128 128.892 20.1877 129.64 20.2914V22.2728H122.452V20.2626C123.172 20.1877 123.869 20.1358 124.589 20.084V6.40401C124.099 6.35217 123.408 6.30033 122.4 6.19665V4.21521H131.754ZM134.784 9.57201C134.784 7.61361 133.701 6.50769 131.541 6.50769H127.394V13.5406H131.541C133.655 13.5406 134.784 12.4578 134.784 10.4994V9.57201Z" fill="#003E6F"/>
<path d="M150.549 20.1877C150.981 20.1877 151.551 20.2626 152.375 20.3375V22.221H147.865V20.3893C146.269 21.6565 144.985 22.4514 142.871 22.4514H142.404C139.853 22.4514 138.747 21.9387 138.747 18.8456V18.3042C138.747 15.3666 140.319 14.9058 142.537 14.6235C144.49 14.3874 145.958 14.2837 147.865 14.0821V13.4082C147.865 11.1042 147.041 10.5282 145.06 10.5282C143.952 10.5223 142.85 10.6795 141.788 10.9947L141.633 12.596H139.622V9.31283C141.46 8.85223 143.344 8.60104 145.238 8.56403H146.218C149.259 8.56403 150.549 10.292 150.549 13.2527V20.1877ZM144 20.493C145.44 20.493 146.627 19.7211 147.888 18.6152V15.5221C146.886 15.6258 144.927 15.8331 143.689 16.0117C142.07 16.2191 141.552 16.628 141.552 18.0738V18.5634C141.552 20.0322 142.019 20.493 143.591 20.493H144Z" fill="#003E6F"/>
<path d="M168.555 10.7816C167.783 10.8853 167.138 10.9371 166.522 10.989L160.704 24.3579C161.372 24.3579 161.706 24.4098 162.276 24.4386V26.3451H155.52V24.4386C156.344 24.3867 157.346 24.3579 158.095 24.3349L158.895 22.5032L153.924 10.9371C153.406 10.9371 152.916 10.8335 152.3 10.7816V8.87506H158.867V10.7816C158.147 10.8623 157.53 10.9141 156.73 10.9371L160.26 19.7499H160.312L164.16 10.9371C163.619 10.9371 163.106 10.8623 162.461 10.7816V8.87506H168.566L168.555 10.7816Z" fill="#003E6F"/>
<path d="M72.7085 31.9092C73.319 31.9092 73.6243 32.3009 73.4976 33.2052L73.3133 34.5358C73.1981 35.3249 72.7373 35.6878 72.1613 35.6878H72C71.523 35.6931 71.056 35.5502 70.6637 35.2788L70.5197 36.3099L71.1302 36.3502L71.0784 36.8628H69.2467L69.3101 36.3444L69.8112 36.3099L70.3872 32.5659L69.9322 32.5198L69.9898 32.0014H71.1763L71.1014 32.468C71.5362 32.1344 72.0585 31.9343 72.6048 31.892L72.7085 31.9092ZM72.7488 33.3723C72.8352 32.7444 72.7488 32.5256 72.311 32.5256H72.1958C71.7774 32.5518 71.3763 32.7022 71.0438 32.9576L70.7616 34.7835C71.0511 35.0157 71.4163 35.1327 71.7869 35.1118H71.9078C72.3514 35.1118 72.5472 34.8411 72.6278 34.2075L72.7488 33.3723Z" fill="#003E6F"/>
<path d="M75.335 35.7051C74.2406 35.7051 73.8144 35.1867 73.9642 34.1441L74.0506 33.4587C74.0536 33.2355 74.1038 33.0155 74.1978 32.813C74.2919 32.6106 74.4277 32.4303 74.5963 32.284C74.7649 32.1377 74.9625 32.0287 75.1762 31.9641C75.3898 31.8995 75.6147 31.8808 75.8362 31.9093H76.176C77.2531 31.9093 77.6563 32.4334 77.5066 33.499L77.4202 34.1845C77.4176 34.4014 77.3694 34.6155 77.2789 34.8127C77.1883 35.0099 77.0573 35.1858 76.8944 35.3292C76.7315 35.4725 76.5403 35.5801 76.3332 35.6448C76.1261 35.7096 75.9077 35.7301 75.6922 35.7051H75.335ZM75.6979 35.1579C75.9346 35.1787 76.1699 35.105 76.3523 34.9528C76.5347 34.8006 76.6494 34.5823 76.6714 34.3457L76.8154 33.2398C76.896 32.7157 76.6483 32.4565 76.1011 32.4565H75.767C75.6499 32.4462 75.5318 32.4596 75.4199 32.4957C75.308 32.5318 75.2044 32.59 75.1153 32.6667C75.0262 32.7435 74.9533 32.8373 74.9011 32.9427C74.8488 33.048 74.8181 33.1628 74.8109 33.2801L74.6496 34.3861C74.5805 34.9045 74.8166 35.1579 75.3638 35.1579H75.6979Z" fill="#003E6F"/>
<path d="M83.7562 32.5198L83.2781 32.5544L81.9648 35.636H81.095L80.6746 33.1534L79.5226 35.636H78.6989L78.2611 32.5602L77.8234 32.5256L77.881 32.0072H79.488L79.4246 32.5256L78.9523 32.5602L79.2461 34.9448L80.5594 32.0072H81.1354L81.6538 34.9448L82.6618 32.5659C82.5178 32.5659 82.3622 32.5659 82.1894 32.5256L82.2413 32.0072H83.8253L83.7562 32.5198Z" fill="#003E6F"/>
<path d="M85.824 31.9093C86.8262 31.9093 87.2525 32.3931 87.12 33.3435L87.0106 34.1442H84.4358L84.3898 34.4091C84.3206 34.9448 84.5914 35.1695 85.104 35.1695H85.392C85.5497 35.1852 85.7087 35.1576 85.8518 35.0896C85.995 35.0216 86.1168 34.9157 86.2042 34.7835L86.2502 34.6971H86.8262L86.7629 35.1925C86.3683 35.5412 85.8548 35.7247 85.3286 35.7051H85.0925C83.9808 35.7051 83.5718 35.2098 83.7274 34.1327L83.831 33.3723C83.8435 33.1579 83.9 32.9483 83.9969 32.7565C84.0938 32.5648 84.2291 32.3951 84.3944 32.2579C84.5597 32.1207 84.7515 32.0189 84.9578 31.9589C85.1641 31.899 85.3805 31.8821 85.5936 31.9093H85.824ZM86.4922 33.1707C86.5613 32.6581 86.2733 32.4277 85.7549 32.4277H85.5475C85.3072 32.4068 85.0683 32.4816 84.8828 32.6359C84.6973 32.7901 84.5802 33.0113 84.5568 33.2514L84.505 33.6258H86.4288L86.4922 33.1707Z" fill="#003E6F"/>
<path d="M88.8134 32.6581C88.9553 32.4548 89.1416 32.2864 89.3581 32.1657C89.5747 32.0449 89.8158 31.975 90.0634 31.9611H90.3917L90.3053 32.6293H89.7811C89.5852 32.6332 89.3924 32.6789 89.2156 32.7634C89.0388 32.8478 88.882 32.969 88.7558 33.1189L88.3814 35.636H87.6557L88.1165 32.5717L87.6614 32.5256L87.719 32.0072H88.9114L88.8134 32.6581Z" fill="#003E6F"/>
<path d="M92.4134 31.9093C93.4157 31.9093 93.8419 32.3931 93.7094 33.3435L93.5942 34.1441H91.008L90.9677 34.4091C90.8986 34.9448 91.1693 35.1694 91.6819 35.1694H91.9699C92.1276 35.1852 92.2866 35.1576 92.4297 35.0896C92.5729 35.0215 92.6947 34.9157 92.7821 34.7835L92.8282 34.6971H93.4042L93.3408 35.1925C92.9463 35.5411 92.4327 35.7247 91.9066 35.7051H91.6704C90.553 35.7051 90.1498 35.2097 90.3053 34.1326L90.432 33.3723C90.4448 33.1611 90.5003 32.9547 90.5951 32.7655C90.6899 32.5764 90.822 32.4084 90.9835 32.2716C91.1449 32.1349 91.3324 32.0323 91.5346 31.9701C91.7368 31.9078 91.9496 31.8871 92.16 31.9093H92.4134ZM93.0758 33.1707C93.1507 32.6581 92.8627 32.4277 92.3443 32.4277H92.16C92.0408 32.4166 91.9207 32.4291 91.8063 32.4645C91.692 32.4999 91.5858 32.5575 91.4938 32.634C91.4018 32.7105 91.3257 32.8044 91.27 32.9104C91.2144 33.0163 91.1801 33.1322 91.1693 33.2513L91.1174 33.6257H93.0413L93.0758 33.1707Z" fill="#003E6F"/>
<path d="M97.2749 34.7432C97.2403 34.9909 97.3094 35.1234 97.5859 35.1234H97.92L97.8566 35.5554C97.6666 35.6535 97.4539 35.6992 97.2403 35.6878C96.9408 35.6878 96.5203 35.5554 96.5434 35.0427V34.9909C96.1289 35.3758 95.602 35.6181 95.04 35.6821H94.9133C94.3373 35.6821 93.9629 35.2904 94.0896 34.3861L94.2682 33.0901C94.3834 32.301 94.8442 31.9381 95.4202 31.9381H95.616C96.0858 31.9135 96.5491 32.0563 96.9235 32.3413L97.0905 31.2526C96.9132 31.2237 96.7343 31.2045 96.5549 31.195L96.601 30.74H97.8739L97.2749 34.7432ZM95.4432 35.06C95.8565 35.0174 96.2467 34.8484 96.5606 34.5761L96.8371 32.8021C96.5452 32.5864 96.185 32.4841 95.8234 32.5141H95.7024C95.2589 32.5141 95.0573 32.8078 94.9766 33.3032L94.8557 34.219C94.7635 34.8411 94.8902 35.06 95.328 35.06H95.4432Z" fill="#003E6F"/>
<path d="M100.8 32.324C101.222 32.0417 101.721 31.8968 102.228 31.9093H102.344C102.954 31.9093 103.317 32.301 103.213 33.0613L103.023 34.3976C102.897 35.302 102.407 35.6533 101.71 35.6533H101.595C100.938 35.6533 100.443 35.6188 99.6307 35.5612L100.224 31.2872L99.7632 31.2412L99.8208 30.7285H101.019L100.8 32.324ZM102.442 33.3781C102.534 32.7445 102.442 32.4853 101.998 32.4853H101.871C101.462 32.4778 101.059 32.5964 100.719 32.8252L100.397 35.06C100.729 35.1044 101.064 35.1236 101.399 35.1176H101.508C101.952 35.1176 102.217 34.8584 102.298 34.2364L102.442 33.3781Z" fill="#003E6F"/>
<path d="M107.896 32.5199L107.349 32.5659L105.224 36.212C105.402 36.212 105.494 36.212 105.65 36.212L105.587 36.7304H103.755L103.818 36.212H104.538L104.832 35.7109L103.933 32.5775C103.795 32.5775 103.645 32.5775 103.49 32.5371L103.542 32.0187H105.333L105.27 32.5429C105.074 32.5429 104.901 32.5429 104.694 32.5775L105.304 34.9679L106.704 32.5775C106.566 32.5775 106.41 32.5775 106.243 32.5371L106.301 32.0187H107.96L107.896 32.5199Z" fill="#003E6F"/>
<path d="M112.787 35.0255C112.323 35.4712 111.702 35.7156 111.059 35.7051H110.592C109.44 35.7051 108.985 35.1637 109.14 34.0175L109.365 32.4162C109.373 32.1726 109.43 31.9332 109.533 31.7126C109.637 31.4919 109.784 31.2947 109.966 31.1329C110.149 30.9712 110.362 30.8483 110.593 30.7718C110.825 30.6954 111.069 30.6669 111.312 30.6882H111.606C112.176 30.6817 112.743 30.7733 113.282 30.9589L113.126 32.18H112.499V31.3909C112.104 31.2768 111.693 31.2339 111.283 31.2642C110.978 31.2642 110.685 31.3855 110.469 31.6016C110.253 31.8176 110.131 32.1106 110.131 32.4162L109.895 34.1442C109.797 34.8066 110.091 35.1003 110.73 35.1003H111.087C111.322 35.114 111.555 35.0599 111.759 34.9444C111.963 34.829 112.13 34.6572 112.239 34.4495H112.867L112.787 35.0255Z" fill="#003E6F"/>
<path d="M117.66 35.06C117.878 35.06 118.086 35.0946 118.305 35.1176L118.241 35.6533H116.248L116.317 35.1061L116.83 35.0658L116.657 34.1902H114.854L114.451 35.06L114.866 35.1118L114.814 35.6475H112.988L113.052 35.1003C113.259 35.1003 113.472 35.06 113.674 35.0542L115.482 31.339C115.356 31.339 115.2 31.339 114.906 31.2872L114.981 30.7515H116.778L117.66 35.06ZM116.133 31.3909L115.102 33.5509H116.582L116.156 31.3909H116.133Z" fill="#003E6F"/>
<path d="M119.364 34.893C119.71 35.0524 120.09 35.1237 120.47 35.1003H120.568C121.3 35.1003 121.565 34.916 121.645 34.3803L121.674 34.1902C121.732 33.764 121.611 33.6142 121.098 33.5048L119.808 33.1995C119.117 33.0037 118.927 32.7214 119.025 32.0072V31.9266C119.146 31.0165 119.681 30.6594 120.862 30.6594H121.035C121.606 30.6551 122.174 30.7607 122.705 30.9704L122.573 32.18H121.997V31.4312C121.688 31.3004 121.353 31.2413 121.018 31.2584H120.845C120.194 31.2584 119.9 31.4542 119.837 31.9323V32.0072C119.791 32.3413 119.877 32.491 120.223 32.5832L121.674 32.923C121.808 32.9335 121.937 32.9739 122.052 33.041C122.168 33.1082 122.267 33.2005 122.342 33.3111C122.418 33.4216 122.467 33.5477 122.487 33.6799C122.507 33.8122 122.497 33.9472 122.458 34.075L122.412 34.3803C122.279 35.3134 121.772 35.6706 120.568 35.6706H120.338C119.739 35.6835 119.146 35.5511 118.61 35.2846L118.76 34.1326H119.382L119.364 34.893Z" fill="#003E6F"/>
<path d="M128.333 31.2757C128.137 31.2757 127.941 31.3103 127.757 31.316L127.198 35.06L127.774 35.1119L127.711 35.6476H125.885L125.96 35.1004L126.455 35.0658L126.685 33.4933H124.347L124.116 35.0658L124.583 35.1119L124.531 35.6476H122.688L122.751 35.1004L123.327 35.0543L123.869 31.3391L123.293 31.2872L123.356 30.7516H125.199L125.13 31.3276L124.646 31.3621L124.416 32.8309H126.755L126.985 31.3103C126.824 31.3103 126.662 31.2815 126.484 31.2642L126.547 30.7285H128.39L128.333 31.2757Z" fill="#003E6F"/>
<path d="M133.632 31.2757C133.43 31.2757 133.24 31.316 133.056 31.3218L132.422 35.636H131.622L129.779 31.9208L129.335 35.06L129.802 35.1061L129.744 35.6418H128.016L128.079 35.0946C128.281 35.0946 128.477 35.06 128.655 35.0543L129.197 31.3391L128.621 31.2815L128.684 30.7458H130.003L131.904 34.5474L132.353 31.3103C132.204 31.3103 132.042 31.2815 131.858 31.2642L131.921 30.7285H133.684L133.632 31.2757Z" fill="#003E6F"/>
<path d="M135.654 31.9093C136.65 31.9093 137.082 32.3931 136.944 33.3435L136.835 34.1442H134.26L134.22 34.4091C134.15 34.9448 134.421 35.1695 134.934 35.1695H135.216C135.374 35.1852 135.533 35.1576 135.676 35.0896C135.819 35.0216 135.941 34.9157 136.028 34.7835L136.08 34.6971H136.656L136.598 35.1925C136.203 35.5401 135.69 35.7235 135.164 35.7051H134.922C133.811 35.7051 133.407 35.2098 133.557 34.1327L133.667 33.3723C133.679 33.1579 133.735 32.9483 133.832 32.7565C133.929 32.5648 134.065 32.3951 134.23 32.2579C134.395 32.1207 134.587 32.0189 134.793 31.9589C135 31.899 135.216 31.8821 135.429 31.9093H135.654ZM136.316 33.1707C136.385 32.6581 136.103 32.4277 135.585 32.4277H135.36C135.12 32.4069 134.882 32.4819 134.697 32.6362C134.513 32.7906 134.397 33.0118 134.375 33.2514L134.317 33.6258H136.241L136.316 33.1707Z" fill="#003E6F"/>
<path d="M138.718 35.0888C138.943 35.0907 139.168 35.0811 139.392 35.06L139.357 35.4863C139.025 35.6247 138.669 35.6971 138.309 35.6994H138.24C137.699 35.6994 137.462 35.3826 137.56 34.7029L137.871 32.5314H137.411L137.48 31.9899H137.831C137.856 31.9932 137.882 31.9911 137.906 31.9836C137.931 31.9761 137.953 31.9635 137.972 31.9465C137.992 31.9296 138.007 31.9088 138.017 31.8855C138.028 31.8622 138.033 31.8369 138.033 31.8114L138.159 30.9819C138.377 30.9464 138.596 30.9252 138.816 30.9186L138.678 31.9899H139.738L139.668 32.5314H138.586L138.321 34.4034C138.252 34.9794 138.321 35.0831 138.655 35.0831L138.718 35.0888Z" fill="#003E6F"/>
<path d="M142.669 31.9784C142.643 32.3437 142.473 32.6838 142.197 32.9244C141.921 33.165 141.56 33.2866 141.195 33.2629C141.019 33.286 140.84 33.2646 140.675 33.2007C140.51 33.1369 140.363 33.0325 140.248 32.8973C140.134 32.762 140.055 32.6002 140.019 32.4266C139.983 32.253 139.991 32.0731 140.043 31.9035C140.055 31.7234 140.102 31.5473 140.182 31.3854C140.262 31.2235 140.373 31.079 140.509 30.9602C140.645 30.8414 140.803 30.7506 140.974 30.693C141.145 30.6355 141.326 30.6123 141.506 30.6248C141.682 30.5999 141.861 30.6197 142.028 30.6824C142.194 30.7451 142.342 30.8485 142.458 30.9834C142.574 31.1182 142.654 31.28 142.691 31.4538C142.728 31.6277 142.72 31.8081 142.669 31.9784ZM140.244 31.9784C140.203 32.115 140.196 32.2598 140.225 32.3997C140.254 32.5395 140.317 32.6699 140.409 32.7788C140.502 32.8878 140.62 32.9718 140.753 33.0232C140.886 33.0745 141.03 33.0916 141.172 33.0728C141.336 33.0951 141.502 33.0819 141.661 33.0341C141.819 32.9863 141.965 32.905 142.089 32.7957C142.213 32.6864 142.312 32.5517 142.379 32.4008C142.447 32.2498 142.481 32.0861 142.479 31.9208C142.521 31.7835 142.528 31.6379 142.498 31.4974C142.469 31.3568 142.405 31.2259 142.313 31.1164C142.22 31.007 142.101 30.9226 141.967 30.8709C141.833 30.8192 141.689 30.8019 141.546 30.8206C141.383 30.8038 141.219 30.8211 141.063 30.8715C140.907 30.9218 140.763 31.004 140.64 31.1129C140.518 31.2218 140.42 31.355 140.351 31.504C140.283 31.653 140.247 31.8146 140.244 31.9784ZM141.564 31.2296C141.852 31.2296 142.007 31.4024 141.972 31.6501V31.7192C141.967 31.8007 141.937 31.8787 141.888 31.9441C141.839 32.0095 141.773 32.0594 141.696 32.0878C141.747 32.1805 141.781 32.2822 141.794 32.3874H141.978V32.5659H141.558V32.4507C141.543 32.3201 141.5 32.1943 141.431 32.0821H141.16L141.114 32.3701H141.264L141.235 32.5659H140.659L140.688 32.3701H140.849L140.993 31.4427H140.826V31.2526L141.564 31.2296ZM141.172 31.8978H141.477C141.61 31.8978 141.673 31.8286 141.696 31.6962V31.6386C141.696 31.5118 141.661 31.4485 141.512 31.4485H141.229L141.172 31.8978Z" fill="#003E6F"/>
</g>
<defs>
<linearGradient id="paint0_linear_503_589" x1="198.395" y1="59.252" x2="207.156" y2="59.252" gradientUnits="userSpaceOnUse">
<stop offset="0.01" stop-color="#007F49"/>
<stop offset="1" stop-color="#62BA46"/>
</linearGradient>
<linearGradient id="paint1_linear_503_589" x1="178.741" y1="59.252" x2="187.502" y2="59.252" gradientUnits="userSpaceOnUse">
<stop stop-color="#333377"/>
<stop offset="1" stop-color="#0077BE"/>
</linearGradient>
<linearGradient id="paint2_linear_503_589" x1="188.567" y1="59.252" x2="197.33" y2="59.252" gradientUnits="userSpaceOnUse">
<stop offset="0.01" stop-color="#743237"/>
<stop offset="1" stop-color="#EC1846"/>
</linearGradient>
<linearGradient id="paint3_linear_503_589" x1="105.594" y1="57.1889" x2="109.758" y2="61.2979" gradientUnits="userSpaceOnUse">
<stop offset="0.31" stop-color="#F37521"/>
<stop offset="0.65" stop-color="#F89F1F"/>
</linearGradient>
<clipPath id="clip0_503_589">
<rect width="41.4495" height="26.496" fill="white" transform="translate(0 46.004)"/>
</clipPath>
<clipPath id="clip1_503_589">
<rect width="41.4495" height="26.496" fill="white" transform="translate(172.224 46.004)"/>
</clipPath>
<clipPath id="clip2_503_589">
<rect width="41.4495" height="26.496" fill="white" transform="translate(129.024 46.004)"/>
</clipPath>
<clipPath id="clip3_503_589">
<rect width="41.4495" height="26.496" fill="white" transform="translate(43.2 46.004)"/>
</clipPath>
<clipPath id="clip4_503_589">
<rect width="40.896" height="26.496" fill="white" transform="translate(86.4 46.004)"/>
</clipPath>
<clipPath id="clip5_503_589">
<rect width="123.627" height="32.9011" fill="white" transform="translate(44.928 3.95599)"/>
</clipPath>
</defs>
</svg>
